<svg width="834" height="633" viewBox="0 0 834 633" fill="none" xmlns="http://www.w3.org/2000/svg">
<path d="M319.748 3.5H402.998L402.38 0H319.13L319.748 3.5Z" fill="white"/>
<path d="M312.392 40.5H349.392L348.774 37H311.774L312.392 40.5Z" fill="white"/>
<path d="M345.463 44.4201H354.713L352.713 33.0801H343.463L345.463 44.4201Z" fill="white"/>
<path d="M350.772 48.3299H387.772L384.394 29.1699H347.394L350.772 48.3299Z" fill="white"/>
<path d="M382.463 44.4201H391.713L389.713 33.0801H380.463L382.463 44.4201Z" fill="white"/>
<path d="M386.392 40.5H423.392L422.774 37H385.774L386.392 40.5Z" fill="white"/>
<path d="M305.046 77.5H342.046L341.429 74H304.429L305.046 77.5Z" fill="white"/>
<path d="M338.107 81.4201H347.357L345.357 70.0801H336.107L338.107 81.4201Z" fill="white"/>
<path d="M343.426 85.3299H366.546L363.168 66.1699H340.048L343.426 85.3299Z" fill="white"/>
<path d="M362.618 89.25H394.988L390.227 62.25H357.857L362.618 89.25Z" fill="white"/>
<path d="M389.676 85.3299H408.176L404.798 66.1699H386.298L389.676 85.3299Z" fill="white"/>
<path d="M402.857 81.4201H412.107L410.107 70.0801H400.857L402.857 81.4201Z" fill="white"/>
<path d="M406.796 77.5H443.796L443.179 74H406.179L406.796 77.5Z" fill="white"/>
<path d="M297.69 114.5H334.69L334.073 111H297.073L297.69 114.5Z" fill="white"/>
<path d="M330.761 118.42H340.011L338.012 107.08H328.762L330.761 118.42Z" fill="white"/>
<path d="M336.071 122.33H354.571L351.192 103.17H332.692L336.071 122.33Z" fill="white"/>
<path d="M350.642 126.25H415.392L410.631 99.25H345.881L350.642 126.25Z" fill="white"/>
<path d="M410.071 122.33H428.571L425.192 103.17H406.692L410.071 122.33Z" fill="white"/>
<path d="M423.261 118.42H432.511L430.512 107.08H421.262L423.261 118.42Z" fill="white"/>
<path d="M427.19 114.5H464.19L463.573 111H426.573L427.19 114.5Z" fill="white"/>
<path d="M290.344 151.5H327.344L326.727 148H289.727L290.344 151.5Z" fill="white"/>
<path d="M323.405 155.42H332.655L330.656 144.08H321.406L323.405 155.42Z" fill="white"/>
<path d="M328.725 159.33H347.225L343.846 140.17H325.346L328.725 159.33Z" fill="white"/>
<path d="M343.286 163.25H435.786L431.025 136.25H338.525L343.286 163.25Z" fill="white"/>
<path d="M430.475 159.33H448.975L445.596 140.17H427.096L430.475 159.33Z" fill="white"/>
<path d="M443.655 155.42H452.905L450.906 144.08H441.656L443.655 155.42Z" fill="white"/>
<path d="M447.594 151.5H484.594L483.977 148H446.977L447.594 151.5Z" fill="white"/>
<path d="M282.988 188.5H319.988L319.371 185H282.371L282.988 188.5Z" fill="white"/>
<path d="M316.059 192.42H325.309L323.31 181.08H314.06L316.059 192.42Z" fill="white"/>
<path d="M321.369 196.33H344.499L341.12 177.17H317.99L321.369 196.33Z" fill="white"/>
<path d="M340.56 200.25H456.19L451.429 173.25H335.799L340.56 200.25Z" fill="white"/>
<path d="M450.869 196.33H469.369L465.99 177.17H447.49L450.869 196.33Z" fill="white"/>
<path d="M464.059 192.42H473.309L471.31 181.08H462.06L464.059 192.42Z" fill="white"/>
<path d="M467.988 188.5H504.988L504.371 185H467.371L467.988 188.5Z" fill="white"/>
<path d="M39.7617 225.5H303.392L302.775 222H39.1445L39.7617 225.5Z" fill="white"/>
<path d="M299.454 229.42H308.704L306.704 218.08H297.454L299.454 229.42Z" fill="white"/>
<path d="M304.773 233.33H332.523L329.145 214.17H301.395L304.773 233.33Z" fill="white"/>
<path d="M328.584 237.25H476.584L471.823 210.25H323.823L328.584 237.25Z" fill="white"/>
<path d="M471.273 233.33H499.023L495.645 214.17H467.895L471.273 233.33Z" fill="white"/>
<path d="M493.704 229.42H507.584L505.584 218.08H491.704L493.704 229.42Z" fill="white"/>
<path d="M502.262 225.5H761.262L760.645 222H501.645L502.262 225.5Z" fill="white"/>
<path d="M46.2856 262.5H97.1656L96.5485 259H45.6685L46.2856 262.5Z" fill="white"/>
<path d="M93.2271 266.42H102.477L100.478 255.08H91.2275L93.2271 266.42Z" fill="white"/>
<path d="M98.5464 270.33H130.916L127.538 251.17H95.168L98.5464 270.33Z" fill="white"/>
<path d="M126.988 274.25H691.238L686.477 247.25H122.227L126.988 274.25Z" fill="white"/>
<path d="M685.917 270.33H718.297L714.919 251.17H682.539L685.917 270.33Z" fill="white"/>
<path d="M712.978 266.42H722.228L720.228 255.08H710.978L712.978 266.42Z" fill="white"/>
<path d="M716.916 262.5H767.786L767.169 259H716.299L716.916 262.5Z" fill="white"/>
<path d="M89.81 299.5H145.31L144.693 296H89.1929L89.81 299.5Z" fill="white"/>
<path d="M141.381 303.42H155.251L153.252 292.08H139.382L141.381 303.42Z" fill="white"/>
<path d="M151.321 307.33H179.071L175.692 288.17H147.942L151.321 307.33Z" fill="white"/>
<path d="M175.132 311.25H660.762L656.001 284.25H170.371L175.132 311.25Z" fill="white"/>
<path d="M655.441 307.33H683.191L679.812 288.17H652.062L655.441 307.33Z" fill="white"/>
<path d="M677.881 303.42H687.131L685.132 292.08H675.882L677.881 303.42Z" fill="white"/>
<path d="M681.811 299.5H737.311L736.693 296H681.193L681.811 299.5Z" fill="white"/>
<path d="M147.214 336.5H198.084L197.467 333H146.597L147.214 336.5Z" fill="white"/>
<path d="M194.155 340.42H208.025L206.026 329.08H192.156L194.155 340.42Z" fill="white"/>
<path d="M204.095 344.33H231.845L228.466 325.17H200.716L204.095 344.33Z" fill="white"/>
<path d="M227.906 348.25H616.406L611.645 321.25H223.145L227.906 348.25Z" fill="white"/>
<path d="M611.095 344.33H638.845L635.467 325.17H607.717L611.095 344.33Z" fill="white"/>
<path d="M633.526 340.42H647.406L645.406 329.08H631.526L633.526 340.42Z" fill="white"/>
<path d="M642.084 336.5H697.584L696.967 333H641.467L642.084 336.5Z" fill="white"/>
<path d="M199.988 373.5H255.488L254.871 370H199.371L199.988 373.5Z" fill="white"/>
<path d="M251.549 377.42H260.799L258.8 366.08H249.55L251.549 377.42Z" fill="white"/>
<path d="M256.869 381.33H284.619L281.24 362.17H253.49L256.869 381.33Z" fill="white"/>
<path d="M280.68 385.25H581.31L576.549 358.25H275.919L280.68 385.25Z" fill="white"/>
<path d="M575.989 381.33H599.119L595.741 362.17H572.611L575.989 381.33Z" fill="white"/>
<path d="M593.8 377.42H607.68L605.68 366.08H591.8L593.8 377.42Z" fill="white"/>
<path d="M602.359 373.5H653.239L652.622 370H601.742L602.359 373.5Z" fill="white"/>
<path d="M248.132 410.5H285.132L284.515 407H247.515L248.132 410.5Z" fill="white"/>
<path d="M281.204 414.42H290.454L288.454 403.08H279.204L281.204 414.42Z" fill="white"/>
<path d="M286.513 418.33H305.013L301.634 399.17H283.134L286.513 418.33Z" fill="white"/>
<path d="M301.084 422.25H569.334L564.573 395.25H296.323L301.084 422.25Z" fill="white"/>
<path d="M564.013 418.33H587.143L583.765 399.17H560.635L564.013 418.33Z" fill="white"/>
<path d="M581.824 414.42H591.074L589.074 403.08H579.824L581.824 414.42Z" fill="white"/>
<path d="M585.763 410.5H622.763L622.146 407H585.146L585.763 410.5Z" fill="white"/>
<path d="M245.406 447.5H282.406L281.789 444H244.789L245.406 447.5Z" fill="white"/>
<path d="M278.478 451.42H287.728L285.728 440.08H276.478L278.478 451.42Z" fill="white"/>
<path d="M283.787 455.33H302.287L298.909 436.17H280.409L283.787 455.33Z" fill="white"/>
<path d="M298.358 459.25H585.108L580.347 432.25H293.597L298.358 459.25Z" fill="white"/>
<path d="M579.788 455.33H598.288L594.909 436.17H576.409L579.788 455.33Z" fill="white"/>
<path d="M592.978 451.42H602.228L600.229 440.08H590.979L592.978 451.42Z" fill="white"/>
<path d="M596.907 447.5H633.907L633.29 444H596.29L596.907 447.5Z" fill="white"/>
<path d="M242.681 484.5H279.681L279.063 481H242.063L242.681 484.5Z" fill="white"/>
<path d="M275.751 488.42H285.001L283.002 477.08H273.752L275.751 488.42Z" fill="white"/>
<path d="M281.061 492.33H299.561L296.183 473.17H277.683L281.061 492.33Z" fill="white"/>
<path d="M295.632 496.25H600.882L596.122 469.25H290.872L295.632 496.25Z" fill="white"/>
<path d="M595.562 492.33H618.692L615.313 473.17H592.183L595.562 492.33Z" fill="white"/>
<path d="M613.372 488.42H622.622L620.623 477.08H611.373L613.372 488.42Z" fill="white"/>
<path d="M617.311 484.5H654.311L653.694 481H616.694L617.311 484.5Z" fill="white"/>
<path d="M235.334 521.5H272.334L271.717 518H234.717L235.334 521.5Z" fill="white"/>
<path d="M268.396 525.42H277.646L275.646 514.08H266.396L268.396 525.42Z" fill="white"/>
<path d="M273.715 529.33H292.215L288.837 510.17H270.337L273.715 529.33Z" fill="white"/>
<path d="M288.276 533.25H390.026L385.266 506.25H283.516L288.276 533.25Z" fill="white"/>
<path d="M384.716 529.33H412.466L409.087 510.17H381.337L384.716 529.33Z" fill="white"/>
<path d="M407.146 525.42H421.026L419.026 514.08H405.146L407.146 525.42Z" fill="white"/>
<path d="M415.705 521.5H489.705L489.088 518H415.088L415.705 521.5Z" fill="white"/>
<path d="M485.776 525.42H499.646L497.647 514.08H483.777L485.776 525.42Z" fill="white"/>
<path d="M495.716 529.33H523.466L520.087 510.17H492.337L495.716 529.33Z" fill="white"/>
<path d="M519.527 533.25H621.277L616.516 506.25H514.766L519.527 533.25Z" fill="white"/>
<path d="M615.966 529.33H634.466L631.087 510.17H612.587L615.966 529.33Z" fill="white"/>
<path d="M629.146 525.42H638.396L636.396 514.08H627.146L629.146 525.42Z" fill="white"/>
<path d="M633.085 521.5H670.085L669.468 518H632.468L633.085 521.5Z" fill="white"/>
<path d="M232.609 558.5H269.609L268.992 555H231.992L232.609 558.5Z" fill="white"/>
<path d="M265.67 562.42H274.92L272.92 551.08H263.67L265.67 562.42Z" fill="white"/>
<path d="M270.989 566.33H289.489L286.111 547.17H267.611L270.989 566.33Z" fill="white"/>
<path d="M285.55 570.25H341.05L336.29 543.25H280.79L285.55 570.25Z" fill="white"/>
<path d="M335.739 566.33H368.109L364.731 547.17H332.361L335.739 566.33Z" fill="white"/>
<path d="M362.8 562.42H372.05L370.051 551.08H360.801L362.8 562.42Z" fill="white"/>
<path d="M366.729 558.5H426.859L426.242 555H366.112L366.729 558.5Z" fill="white"/>
<path d="M496.229 558.5H551.729L551.112 555H495.612L496.229 558.5Z" fill="white"/>
<path d="M547.8 562.42H561.67L559.671 551.08H545.801L547.8 562.42Z" fill="white"/>
<path d="M557.74 566.33H585.49L582.111 547.17H554.361L557.74 566.33Z" fill="white"/>
<path d="M581.551 570.25H637.051L632.29 543.25H576.79L581.551 570.25Z" fill="white"/>
<path d="M631.74 566.33H654.86L651.481 547.17H628.361L631.74 566.33Z" fill="white"/>
<path d="M649.55 562.42H658.8L656.801 551.08H647.551L649.55 562.42Z" fill="white"/>
<path d="M653.479 558.5H685.859L685.242 555H652.862L653.479 558.5Z" fill="white"/>
<path d="M225.253 595.5H266.883L266.266 592H224.636L225.253 595.5Z" fill="white"/>
<path d="M262.944 599.42H272.194L270.194 588.08H260.944L262.944 599.42Z" fill="white"/>
<path d="M268.263 603.33H319.133L315.755 584.17H264.885L268.263 603.33Z" fill="white"/>
<path d="M313.824 599.42H327.694L325.694 588.08H311.824L313.824 599.42Z" fill="white"/>
<path d="M322.383 595.5H377.883L377.266 592H321.766L322.383 595.5Z" fill="white"/>
<path d="M553.633 595.5H613.753L613.136 592H553.016L553.633 595.5Z" fill="white"/>
<path d="M609.824 599.42H619.074L617.075 588.08H607.825L609.824 599.42Z" fill="white"/>
<path d="M615.134 603.33H670.634L667.255 584.17H611.755L615.134 603.33Z" fill="white"/>
<path d="M665.324 599.42H674.574L672.575 588.08H663.325L665.324 599.42Z" fill="white"/>
<path d="M669.253 595.5H706.253L705.636 592H668.636L669.253 595.5Z" fill="white"/>
<path d="M227.157 632.5H333.527L332.91 629H226.54L227.157 632.5Z" fill="white"/>
<path d="M615.657 632.5H717.407L716.79 629H615.04L615.657 632.5Z" fill="white"/>
</svg>
